<svg data-v-423bf9ae="" xmlns="http://www.w3.org/2000/svg" viewBox="0 0 364.2990686969333 60" class="font"><!----><!----><!----><g data-v-423bf9ae="" id="447a1589-6b63-4e4a-b49b-24a083001388" fill="#000000" transform="matrix(6.230529520973259,0,0,6.230529520973259,-0.7476569002995461,-23.67601164418501)"><path d="M11.21 6.22L11.21 6.22L11.21 6.22Q10.53 6.22 10.27 5.58L10.27 5.58L10.27 5.58Q9.28 5.58 8.11 6.06L8.11 6.06L8.11 6.06Q7.38 6.36 7.12 6.61L7.12 6.61L7.12 6.61Q6.87 6.86 6.85 7.01L6.85 7.01L6.85 7.01Q6.84 7.15 6.99 7.25L6.99 7.25L6.99 7.25Q7.15 7.35 7.43 7.44L7.43 7.44L7.43 7.44Q7.72 7.53 8.09 7.62L8.09 7.62L8.09 7.62Q10.06 8.07 10.59 8.25L10.59 8.25L10.59 8.25Q11.63 8.60 12.15 9.02L12.15 9.02L12.15 9.02Q12.65 9.43 12.65 10.15L12.65 10.15L12.65 10.15Q12.65 10.75 12.28 11.16L12.28 11.16L12.28 11.16Q11.92 11.57 11.31 11.89L11.31 11.89L11.31 11.89Q10.71 12.21 9.97 12.46L9.97 12.46L9.97 12.46Q9.23 12.71 8.40 12.89L8.40 12.89L8.40 12.89Q7.58 13.06 6.78 13.18L6.78 13.18L6.78 13.18Q5.22 13.40 4.11 13.40L4.11 13.40L4.11 13.40Q2.09 13.40 1.00 12.91L1.00 12.91L1.00 12.91Q0.59 12.73 0.33 11.99L0.33 11.99L0.33 11.99Q0.12 11.38 0.12 10.99L0.12 10.99L0.12 10.99Q0.12 10.60 0.19 10.55L0.19 10.55L0.19 10.55Q0.26 10.51 0.47 10.55L0.47 10.55L0.47 10.55Q0.68 10.59 1.03 10.68L1.03 10.68L1.85 10.90L1.85 10.90Q3.75 11.38 5.88 11.38L5.88 11.38L5.88 11.38Q7.44 11.38 8.53 11.09L8.53 11.09L8.53 11.09Q9.17 10.92 9.21 10.71L9.21 10.71L9.21 10.71Q9.24 10.53 8.20 10.25L8.20 10.25L8.20 10.25Q7.73 10.12 7.11 9.98L7.11 9.98L7.11 9.98Q4.09 9.25 3.47 9.04L3.47 9.04L3.47 9.04Q2.85 8.83 2.66 8.66L2.66 8.66L2.66 8.66Q2.47 8.50 2.35 8.30L2.35 8.30L2.35 8.30Q2.13 7.91 2.13 7.56L2.13 7.56L2.13 7.56Q2.13 7.21 2.16 7.01L2.16 7.01L2.16 7.01Q2.20 6.82 2.27 6.66L2.27 6.66L2.27 6.66Q2.41 6.32 2.63 6.20L2.63 6.20L2.63 6.20Q4.39 5.22 7.79 4.47L7.79 4.47L7.79 4.47Q10.82 3.80 12.78 3.80L12.78 3.80L12.78 3.80Q13.17 3.80 13.37 3.94L13.37 3.94L13.37 3.94Q13.71 4.19 13.67 4.48L13.67 4.48L13.67 4.48Q13.63 4.76 13.50 5.01L13.50 5.01L13.50 5.01Q13.36 5.25 13.17 5.44L13.17 5.44L13.17 5.44Q12.97 5.64 12.73 5.79L12.73 5.79L12.73 5.79Q12.48 5.93 12.22 6.03L12.22 6.03L12.22 6.03Q11.70 6.22 11.21 6.22ZM26.95 9.35L26.95 9.35L26.95 9.35Q26.95 10.36 27.58 10.36L27.58 10.36L27.58 10.36Q28.01 10.36 29.09 9.59L29.09 9.59L29.09 9.59Q30.06 8.87 30.24 8.69L30.24 8.69L30.24 8.69Q30.67 8.33 31.13 8.33L31.13 8.33L31.13 8.33Q31.33 8.33 31.47 8.47L31.47 8.47L31.47 8.47Q31.61 8.60 31.61 8.87L31.61 8.87L31.61 8.87Q31.61 9.13 31.48 9.35L31.48 9.35L31.48 9.35Q31.35 9.57 31.15 9.80L31.15 9.80L31.15 9.80Q30.95 10.04 30.65 10.32L30.65 10.32L30.65 10.32Q30.35 10.61 29.97 10.93L29.97 10.93L29.97 10.93Q29.59 11.25 29.13 11.56L29.13 11.56L29.13 11.56Q28.68 11.87 28.19 12.13L28.19 12.13L28.19 12.13Q27.10 12.69 26.22 12.69L26.22 12.69L26.22 12.69Q25.20 12.69 24.84 11.77L24.84 11.77L24.84 11.77Q24.63 11.25 24.63 10.51L24.63 10.51L22.64 11.85L22.64 11.85Q20.60 13.29 20.21 13.38L20.21 13.38L20.21 13.38Q20.01 13.43 19.81 13.43L19.81 13.43L19.81 13.43Q19.61 13.43 19.43 13.39L19.43 13.39L19.43 13.39Q19.25 13.35 19.11 13.26L19.11 13.26L19.11 13.26Q18.80 13.08 18.80 12.71L18.80 12.71L18.80 12.71Q18.80 12.57 18.99 12.02L18.99 12.02L19.58 10.40L19.58 10.40Q19.85 9.63 19.85 9.47L19.85 9.47L19.85 9.47Q19.85 9.41 19.78 9.41L19.78 9.41L19.78 9.41Q19.71 9.41 19.53 9.56L19.53 9.56L19.53 9.56Q19.35 9.70 19.09 9.93L19.09 9.93L17.46 11.35L16.60 12.06L16.60 12.06Q15.29 13.10 14.46 13.10L14.46 13.10L14.46 13.10Q14.08 13.10 13.68 12.76L13.68 12.76L13.68 12.76Q13.25 12.39 13.25 11.87L13.25 11.87L13.25 11.87Q13.25 11.35 13.35 10.73L13.35 10.73L13.35 10.73Q13.45 10.12 13.63 9.55L13.63 9.55L13.63 9.55Q13.82 8.98 14.09 8.47L14.09 8.47L14.09 8.47Q14.36 7.97 14.71 7.60L14.71 7.60L14.71 7.60Q15.46 6.79 16.48 6.79L16.48 6.79L16.48 6.79Q17.51 6.79 17.51 7.40L17.51 7.40L17.51 7.40Q17.51 7.66 17.23 8.19L17.23 8.19L17.23 8.19Q16.63 9.37 16.63 9.46L16.63 9.46L16.63 9.46Q16.63 9.55 16.69 9.60L16.69 9.60L16.69 9.60Q16.75 9.65 16.82 9.65L16.82 9.65L16.82 9.65Q16.96 9.65 17.23 9.42L17.23 9.42L17.23 9.42Q18.98 7.88 19.44 7.51L19.44 7.51L19.44 7.51Q19.89 7.14 20.32 6.86L20.32 6.86L20.32 6.86Q21.29 6.23 21.86 6.23L21.86 6.23L21.86 6.23Q22.33 6.23 22.63 6.38L22.63 6.38L22.63 6.38Q23.14 6.64 23.14 6.98L23.14 6.98L23.14 6.98Q23.14 7.31 23.05 7.74L23.05 7.74L23.05 7.74Q22.96 8.16 22.85 8.56L22.85 8.56L22.64 9.26L22.64 9.26Q22.54 9.56 22.54 9.72L22.54 9.72L22.54 9.72Q22.54 9.88 22.68 9.88L22.68 9.88L22.68 9.88Q23.01 9.88 23.99 8.95L23.99 8.95L24.65 8.33L24.65 8.33Q25.79 7.30 26.38 7.30L26.38 7.30L26.38 7.30Q26.66 7.30 26.88 7.52L26.88 7.52L26.88 7.52Q27.26 7.90 27.26 8.19L27.26 8.19L27.26 8.19Q27.26 8.35 27.15 8.61L27.15 8.61L27.15 8.61Q26.95 9.11 26.95 9.35ZM43.21 9.35L43.21 9.35L43.21 9.35Q43.21 10.36 43.84 10.36L43.84 10.36L43.84 10.36Q44.28 10.36 45.35 9.59L45.35 9.59L45.35 9.59Q46.32 8.87 46.50 8.69L46.50 8.69L46.50 8.69Q46.93 8.33 47.39 8.33L47.39 8.33L47.39 8.33Q47.59 8.33 47.73 8.47L47.73 8.47L47.73 8.47Q47.87 8.60 47.87 8.87L47.87 8.87L47.87 8.87Q47.87 9.13 47.74 9.35L47.74 9.35L47.74 9.35Q47.61 9.57 47.41 9.80L47.41 9.80L47.41 9.80Q47.21 10.04 46.91 10.32L46.91 10.32L46.91 10.32Q46.61 10.61 46.23 10.93L46.23 10.93L46.23 10.93Q45.85 11.25 45.39 11.56L45.39 11.56L45.39 11.56Q44.94 11.87 44.45 12.13L44.45 12.13L44.45 12.13Q43.36 12.69 42.48 12.69L42.48 12.69L42.48 12.69Q41.47 12.69 41.10 11.77L41.10 11.77L41.10 11.77Q40.89 11.25 40.89 10.51L40.89 10.51L38.90 11.85L38.90 11.85Q36.86 13.29 36.47 13.38L36.47 13.38L36.47 13.38Q36.27 13.43 36.07 13.43L36.07 13.43L36.07 13.43Q35.87 13.43 35.69 13.39L35.69 13.39L35.69 13.39Q35.51 13.35 35.38 13.26L35.38 13.26L35.38 13.26Q35.06 13.08 35.06 12.71L35.06 12.71L35.06 12.71Q35.06 12.57 35.25 12.02L35.25 12.02L35.84 10.40L35.84 10.40Q36.11 9.63 36.11 9.47L36.11 9.47L36.11 9.47Q36.11 9.41 36.05 9.41L36.05 9.41L36.05 9.41Q35.98 9.41 35.79 9.56L35.79 9.56L35.79 9.56Q35.61 9.70 35.35 9.93L35.35 9.93L33.72 11.35L32.87 12.06L32.87 12.06Q31.55 13.10 30.73 13.10L30.73 13.10L30.73 13.10Q30.34 13.10 29.94 12.76L29.94 12.76L29.94 12.76Q29.51 12.39 29.51 11.87L29.51 11.87L29.51 11.87Q29.51 11.35 29.61 10.73L29.61 10.73L29.61 10.73Q29.71 10.12 29.89 9.55L29.89 9.55L29.89 9.55Q30.08 8.98 30.35 8.47L30.35 8.47L30.35 8.47Q30.63 7.97 30.97 7.60L30.97 7.60L30.97 7.60Q31.73 6.79 32.75 6.79L32.75 6.79L32.75 6.79Q33.77 6.79 33.77 7.40L33.77 7.40L33.77 7.40Q33.77 7.66 33.49 8.19L33.49 8.19L33.49 8.19Q32.89 9.37 32.89 9.46L32.89 9.46L32.89 9.46Q32.89 9.55 32.95 9.60L32.95 9.60L32.95 9.60Q33.01 9.65 33.08 9.65L33.08 9.65L33.08 9.65Q33.22 9.65 33.49 9.42L33.49 9.42L33.49 9.42Q35.25 7.88 35.70 7.51L35.70 7.51L35.70 7.51Q36.16 7.14 36.58 6.86L36.58 6.86L36.58 6.86Q37.55 6.23 38.12 6.23L38.12 6.23L38.12 6.23Q38.60 6.23 38.89 6.38L38.89 6.38L38.89 6.38Q39.40 6.64 39.40 6.98L39.40 6.98L39.40 6.98Q39.40 7.31 39.31 7.74L39.31 7.74L39.31 7.74Q39.22 8.16 39.11 8.56L39.11 8.56L38.90 9.26L38.90 9.26Q38.81 9.56 38.81 9.72L38.81 9.72L38.81 9.72Q38.81 9.88 38.94 9.88L38.94 9.88L38.94 9.88Q39.27 9.88 40.25 8.95L40.25 8.95L40.91 8.33L40.91 8.33Q42.05 7.30 42.64 7.30L42.64 7.30L42.64 7.30Q42.92 7.30 43.14 7.52L43.14 7.52L43.14 7.52Q43.52 7.90 43.52 8.19L43.52 8.19L43.52 8.19Q43.52 8.35 43.42 8.61L43.42 8.61L43.42 8.61Q43.21 9.11 43.21 9.35ZM58.37 7.96L58.37 7.96L58.37 7.96Q58.59 7.96 58.59 8.33L58.59 8.33L58.59 8.33Q58.59 8.97 57.70 9.98L57.70 9.98L57.31 10.38L57.31 10.38Q55.54 12.15 53.98 12.74L53.98 12.74L53.98 12.74Q53.01 13.10 52.58 12.70L52.58 12.70L52.58 12.70Q52.23 12.37 52.03 11.62L52.03 11.62L51.86 11.03L50.41 11.92L49.57 12.40L49.57 12.40Q48.06 13.22 47.31 13.22L47.31 13.22L47.31 13.22Q46.35 13.22 45.71 12.48L45.71 12.48L45.71 12.48Q45.09 11.77 45.09 10.84L45.09 10.84L45.09 10.84Q45.09 9.93 45.82 9.21L45.82 9.21L45.82 9.21Q46.87 8.18 49.12 7.33L49.12 7.33L49.12 7.33Q51.26 6.53 52.57 6.53L52.57 6.53L52.57 6.53Q53.01 6.53 53.01 6.97L53.01 6.97L53.01 6.97Q53.01 7.27 52.90 7.42L52.90 7.42L52.90 7.42Q52.78 7.57 52.42 7.72L52.42 7.72L51.56 8.09L51.56 8.09Q49.64 8.89 48.75 9.75L48.75 9.75L48.75 9.75Q48.50 9.99 48.50 10.22L48.50 10.22L48.50 10.22Q48.50 10.45 48.86 10.45L48.86 10.45L48.86 10.45Q49.22 10.45 50.52 9.68L50.52 9.68L51.08 9.34L51.08 9.34Q52.40 8.55 53.29 8.55L53.29 8.55L53.29 8.55Q54.04 8.55 54.29 9.21L54.29 9.21L54.29 9.21Q54.35 9.39 54.41 9.57L54.41 9.57L54.41 9.57Q54.46 9.75 54.52 9.90L54.52 9.90L54.52 9.90Q54.64 10.23 54.74 10.23L54.74 10.23L54.74 10.23Q54.84 10.23 55.02 10.13L55.02 10.13L55.02 10.13Q55.21 10.04 55.43 9.88L55.43 9.88L55.43 9.88Q55.65 9.73 55.89 9.54L55.89 9.54L56.72 8.88L56.72 8.88Q57.82 7.96 58.37 7.96Z"></path></g><!----><!----></svg>